<svg width="551" height="75" viewBox="0 0 551 73" xmlns="http://www.w3.org/2000/svg"><g id="svgGroup" stroke-linecap="round" fill-rule="evenodd" font-size="9pt" stroke="#000000" stroke-width=".5mm" fill="#000000" style="stroke:#000000;stroke-width:.5mm;fill:#000000"><path d="M 226.5 70.5 L 221.5 70.5 L 221.5 0.5 L 225.8 0.5 L 258.3 56.6 L 256 56.6 L 288.4 0.5 L 292.6 0.5 L 292.7 70.5 L 287.7 70.5 L 287.6 8.2 L 289 8.2 L 258.3 61.2 L 255.8 61.2 L 225 8.2 L 226.5 8.2 L 226.5 70.5 Z M 406 70.5 L 400.9 70.5 L 400.9 0.5 L 405.2 0.5 L 455.1 64.2 L 452.8 64.2 L 452.8 0.5 L 457.9 0.5 L 457.9 70.5 L 453.7 70.5 L 403.7 6.8 L 406 6.8 L 406 70.5 Z M 77.1 5.1 L 77.1 65.9 L 120.3 65.9 L 120.3 70.5 L 72 70.5 L 72 0.5 L 118.8 0.5 L 118.8 5.1 L 77.1 5.1 Z M 166.6 70.5 L 138.9 70.5 L 138.9 0.5 L 166.6 0.5 A 54.143 54.143 0 0 1 167.291 0.504 Q 177.476 0.634 185.352 4.611 A 34.72 34.72 0 0 1 186.1 5 A 37.779 37.779 0 0 1 186.621 5.285 Q 194.645 9.747 199.15 17.4 A 32.318 32.318 0 0 1 200.112 19.156 Q 203.781 26.378 203.8 35.406 A 44.64 44.64 0 0 1 203.8 35.5 Q 203.8 45.7 199.15 53.6 Q 194.662 61.224 186.682 65.682 A 37.742 37.742 0 0 1 186.1 66 A 34.786 34.786 0 0 1 184.771 66.676 Q 176.833 70.5 166.6 70.5 Z M 510 70.5 L 482.3 70.5 L 482.3 0.5 L 510 0.5 A 54.143 54.143 0 0 1 510.691 0.504 Q 520.876 0.634 528.752 4.611 A 34.72 34.72 0 0 1 529.5 5 A 37.779 37.779 0 0 1 530.021 5.285 Q 538.045 9.747 542.55 17.4 A 32.318 32.318 0 0 1 543.512 19.156 Q 547.181 26.378 547.2 35.406 A 44.64 44.64 0 0 1 547.2 35.5 Q 547.2 45.7 542.55 53.6 Q 538.062 61.224 530.082 65.682 A 37.742 37.742 0 0 1 529.5 66 A 34.786 34.786 0 0 1 528.171 66.676 Q 520.233 70.5 510 70.5 Z M 5.1 70.5 L 0 70.5 L 0 0.5 L 25.1 0.5 Q 33.9 0.5 40.2 3.3 Q 46.5 6.1 49.9 11.35 A 19.255 19.255 0 0 1 50.603 12.525 Q 53.3 17.42 53.3 24.1 A 30.938 30.938 0 0 1 53.297 24.554 Q 53.194 31.564 49.9 36.65 Q 46.519 41.871 40.269 44.719 A 28.28 28.28 0 0 1 40.2 44.75 A 26.667 26.667 0 0 1 39.604 45.011 Q 33.554 47.572 25.282 47.6 A 54.102 54.102 0 0 1 25.1 47.6 L 2.8 47.6 L 5.1 45.2 L 5.1 70.5 Z M 346.071 70.994 A 45.447 45.447 0 0 0 346.8 71 Q 354.6 71 361.25 68.35 A 38.424 38.424 0 0 0 361.895 68.086 Q 367.37 65.788 371.628 61.995 A 33.899 33.899 0 0 0 372.8 60.9 A 35.029 35.029 0 0 0 372.918 60.783 Q 377.733 56.022 380.45 49.65 Q 383.114 43.402 383.197 35.98 A 42.794 42.794 0 0 0 383.2 35.5 Q 383.2 28.763 381.095 22.982 A 32.664 32.664 0 0 0 380.45 21.35 A 37.341 37.341 0 0 0 380.333 21.079 Q 377.837 15.35 373.626 10.937 A 34.836 34.836 0 0 0 372.8 10.1 A 34 34 0 0 0 372.309 9.628 Q 367.842 5.425 361.972 2.946 A 38.387 38.387 0 0 0 361.25 2.65 A 35.521 35.521 0 0 0 360.777 2.466 Q 354.637 0.12 347.529 0.006 A 45.447 45.447 0 0 0 346.8 0 Q 339 0 332.35 2.65 A 38.027 38.027 0 0 0 331.656 2.935 Q 326.055 5.296 321.693 9.26 A 34.578 34.578 0 0 0 320.75 10.15 A 35.257 35.257 0 0 0 320.509 10.388 Q 315.734 15.158 313.1 21.45 A 33.374 33.374 0 0 0 312.49 23.017 Q 310.4 28.814 310.4 35.5 A 42.404 42.404 0 0 0 310.404 36.1 Q 310.507 43.356 313.1 49.55 Q 315.631 55.597 320.14 60.238 A 35.121 35.121 0 0 0 320.75 60.85 Q 325.7 65.7 332.35 68.35 A 35.521 35.521 0 0 0 332.823 68.534 Q 338.963 70.88 346.071 70.994 Z M 144 5.1 L 144 65.9 L 166.2 65.9 Q 176.005 65.9 183.259 62.075 A 29.398 29.398 0 0 0 183.4 62 A 32.677 32.677 0 0 0 183.853 61.753 Q 190.459 58.089 194.284 51.94 A 28.779 28.779 0 0 0 194.7 51.25 Q 198.582 44.601 198.697 36.022 A 39.208 39.208 0 0 0 198.7 35.5 Q 198.7 26.6 194.7 19.75 Q 190.7 12.9 183.4 9 Q 176.1 5.1 166.2 5.1 L 144 5.1 Z M 487.4 5.1 L 487.4 65.9 L 509.6 65.9 Q 519.405 65.9 526.659 62.075 A 29.398 29.398 0 0 0 526.8 62 A 32.677 32.677 0 0 0 527.253 61.753 Q 533.859 58.089 537.684 51.94 A 28.779 28.779 0 0 0 538.1 51.25 Q 541.982 44.601 542.097 36.022 A 39.208 39.208 0 0 0 542.1 35.5 Q 542.1 26.6 538.1 19.75 Q 534.1 12.9 526.8 9 Q 519.5 5.1 509.6 5.1 L 487.4 5.1 Z M 346.8 66.3 A 38.632 38.632 0 0 0 347.426 66.295 Q 353.767 66.192 359.2 64 A 32.194 32.194 0 0 0 359.907 63.705 Q 365.122 61.455 369.039 57.561 A 29.294 29.294 0 0 0 369.1 57.5 A 30.491 30.491 0 0 0 369.871 56.7 Q 373.265 53.049 375.345 48.404 A 32.532 32.532 0 0 0 375.65 47.7 Q 377.904 42.328 377.996 36.035 A 36.734 36.734 0 0 0 378 35.5 A 37.749 37.749 0 0 0 377.995 34.874 Q 377.893 28.759 375.802 23.617 A 27.843 27.843 0 0 0 375.65 23.25 A 32.322 32.322 0 0 0 375.349 22.562 Q 373.038 17.438 369.1 13.5 A 29.171 29.171 0 0 0 368.299 12.729 Q 364.455 9.167 359.434 7.095 A 32.42 32.42 0 0 0 359.2 7 A 30.234 30.234 0 0 0 357.759 6.461 Q 352.893 4.78 347.329 4.704 A 38.69 38.69 0 0 0 346.8 4.7 A 38.632 38.632 0 0 0 346.174 4.705 Q 339.833 4.808 334.4 7 A 32.479 32.479 0 0 0 333.693 7.295 Q 328.636 9.475 324.758 13.2 A 30.042 30.042 0 0 0 324.45 13.5 A 30.871 30.871 0 0 0 323.798 14.164 Q 320.016 18.134 317.85 23.25 A 27.945 27.945 0 0 0 317.364 24.478 Q 315.5 29.533 315.5 35.5 A 36.683 36.683 0 0 0 315.505 36.117 Q 315.601 41.846 317.494 46.811 A 28.905 28.905 0 0 0 317.85 47.7 Q 320.134 53.144 324.214 57.264 A 30.554 30.554 0 0 0 324.45 57.5 Q 328.7 61.7 334.4 64 A 30.234 30.234 0 0 0 335.841 64.539 Q 340.707 66.22 346.271 66.296 A 38.69 38.69 0 0 0 346.8 66.3 Z M 5.1 2.6 L 5.1 45.5 L 2.8 43.1 L 25.1 43.1 A 50.498 50.498 0 0 0 25.452 43.099 Q 36.196 43.024 41.938 38.36 A 16.212 16.212 0 0 0 42.25 38.1 A 17.079 17.079 0 0 0 42.698 37.703 Q 48.053 32.792 48.1 24.25 A 27.545 27.545 0 0 0 48.1 24.1 A 27.861 27.861 0 0 0 48.097 23.676 Q 47.968 15.23 42.691 10.436 A 16.69 16.69 0 0 0 42.25 10.05 A 16.248 16.248 0 0 0 41.69 9.597 Q 35.98 5.185 25.504 5.102 A 50.924 50.924 0 0 0 25.1 5.1 L 2.8 5.1 L 5.1 2.6 Z M 76.5 37.2 L 76.5 32.7 L 114.4 32.7 L 114.4 37.2 L 76.5 37.2 Z M 54.4 70.5 L 48.6 70.5 L 30.4 45.1 L 36.2 45.1 L 54.4 70.5 Z" vector-effect="non-scaling-stroke"/></g></svg>